<?xml version="1.0" standalone="no"?>
<!DOCTYPE svg PUBLIC "-//W3C//DTD SVG 20010904//EN"
 "http://www.w3.org/TR/2001/REC-SVG-20010904/DTD/svg10.dtd">
<svg version="1.0" xmlns="http://www.w3.org/2000/svg"
 width="200.000000pt" height="200.000000pt" viewBox="0 0 200.000000 200.000000"
 preserveAspectRatio="xMidYMid meet">
<metadata>
Created by potrace 1.11, written by Peter Selinger 2001-2013
</metadata>
<g transform="translate(0.000000,200.000000) scale(0.100000,-0.100000)"
fill="#000000" stroke="none">
<path d="M1880 1962 c0 -29 -7 -45 -26 -63 -26 -24 -26 -25 -22 -157 3 -119 5
-135 23 -148 18 -13 20 -30 23 -234 l4 -220 -36 0 c-24 0 -42 -7 -54 -20 -24
-29 -161 -70 -230 -70 -31 0 -52 4 -46 8 13 9 46 74 40 79 -2 3 -17 -2 -33
-10 -16 -9 -45 -18 -66 -22 -30 -6 -37 -4 -37 8 0 9 10 19 22 23 21 6 21 7 3
20 -17 12 -17 14 -2 14 20 0 22 11 5 28 -15 15 -32 16 -23 2 4 -6 -5 -10 -19
-10 -27 0 -35 15 -13 23 8 4 7 6 -3 6 -10 1 -8 7 10 20 20 16 22 21 11 35 -7
9 -18 16 -23 16 -6 0 -5 -6 1 -14 10 -12 8 -17 -9 -26 -29 -15 -75 -9 -74 10
5 45 16 85 27 92 7 4 13 3 15 -2 2 -6 12 -10 22 -10 10 0 30 -7 46 -14 26 -14
28 -14 41 12 8 15 21 34 29 43 12 14 13 18 2 22 -10 4 -10 8 2 17 11 8 -2 10
-55 10 -38 -1 -76 -1 -82 -1 -16 1 -17 33 -2 48 6 6 16 21 23 34 6 12 13 20
16 18 3 -2 22 7 42 19 35 22 39 22 85 8 26 -8 39 -15 28 -16 -15 -1 -12 -4 10
-11 17 -5 36 -7 43 -4 6 2 12 -3 13 -13 0 -10 3 -12 6 -4 2 6 9 12 14 12 6 0
5 -9 -1 -21 -19 -34 -1 -36 26 -2 17 22 30 30 44 26 22 -6 22 -6 22 109 -1 77
-16 113 -72 168 -42 41 -103 62 -183 64 -44 0 -60 -5 -101 -34 -53 -37 -123
-106 -168 -163 -36 -45 -37 -89 -2 -130 22 -26 25 -38 22 -78 -4 -37 -1 -51
13 -63 10 -8 21 -32 25 -53 4 -21 20 -65 36 -98 l28 -60 -98 -17 c-53 -9 -150
-26 -215 -37 -66 -12 -129 -21 -141 -21 -45 0 -56 -20 -64 -115 l-7 -90 -29 3
c-77 8 -318 16 -322 11 -5 -9 71 -17 228 -25 104 -5 128 -10 128 -22 0 -14
-36 -14 -390 0 -35 2 -70 -4 -70 -11 0 -14 207 -36 310 -33 137 3 151 -2 166
-66 8 -38 8 -52 0 -49 -6 2 -11 8 -12 13 0 5 -4 17 -7 27 -4 9 -9 24 -12 32
-8 27 -26 16 -19 -11 l7 -27 -29 21 c-16 11 -53 23 -84 26 -30 3 -188 24 -350
46 -162 22 -298 40 -302 40 -5 0 -8 -198 -8 -440 l0 -440 1000 0 1000 0 0 385
c-1 234 -5 387 -10 390 -6 4 -10 -1 -10 -10 0 -27 -28 -28 -59 -2 -23 19 -27
27 -18 37 8 9 5 8 -10 -1 l-22 -13 32 -28 c27 -23 29 -27 13 -28 -11 0 -28 8
-39 17 -18 17 -21 17 -56 -3 -51 -28 -72 -18 -27 12 43 29 44 36 11 54 -16 8
-22 17 -16 23 6 6 21 2 40 -9 26 -16 35 -16 52 -6 11 7 24 10 29 7 6 -4 7 2 3
12 -3 10 -3 15 2 11 4 -4 14 -3 22 3 10 9 17 8 28 -1 17 -14 20 -50 5 -50 -5
0 -10 5 -10 12 0 9 -3 9 -11 1 -17 -17 -2 -33 24 -24 18 7 22 17 25 64 2 47 0
56 -15 59 -10 2 -30 -4 -44 -15 -23 -16 -50 -18 -256 -20 -127 -1 -235 -5
-239 -9 -4 -4 -12 -4 -18 1 -6 5 -54 0 -111 -11 -78 -16 -107 -17 -131 -9 -17
6 -39 11 -51 11 -25 0 -33 8 -26 27 5 12 7 12 14 1 7 -10 9 -10 9 0 0 8 5 9
18 3 48 -26 100 -35 117 -21 7 6 15 7 18 3 4 -3 13 0 21 6 10 9 16 9 21 1 4
-7 11 -8 19 -1 6 5 33 8 59 7 26 -2 49 0 52 4 6 9 66 7 83 -4 7 -4 19 -3 27 4
8 6 19 9 25 5 6 -4 17 -1 25 5 12 10 18 10 30 0 10 -8 19 -9 28 -3 16 13 78
13 94 1 7 -6 21 -7 30 -3 10 4 46 9 81 10 34 1 66 6 70 10 4 3 -6 18 -21 31
-15 13 -25 24 -21 24 4 0 15 -6 23 -14 26 -23 71 -31 71 -13 0 8 -12 20 -27
26 -27 10 -27 10 -3 8 18 -1 26 3 28 18 3 19 -3 20 -115 20 -65 -1 -124 -4
-131 -9 -6 -4 -12 -4 -12 1 0 4 26 19 56 33 47 21 70 25 133 22 84 -3 82 14
-2 21 -48 4 -53 8 -44 30 4 8 8 9 14 1 4 -6 15 -11 23 -12 8 0 30 -5 48 -10
l32 -11 0 460 0 459 -60 0 -60 0 0 -38z m-610 -516 c0 -3 -4 -8 -10 -11 -5 -3
-10 -1 -10 4 0 6 5 11 10 11 6 0 10 -2 10 -4z m-71 -413 c8 -14 13 -15 34 -6
20 10 28 9 37 -3 15 -17 34 -19 24 -1 -5 9 -4 9 7 -1 11 -10 16 -9 30 9 l16
21 21 -29 21 -30 -34 3 c-24 1 -35 -2 -35 -11 0 -15 -37 -27 -45 -15 -3 4 -20
8 -37 7 -42 -1 -102 48 -78 63 21 14 28 12 39 -7z m-69 -18 c-7 -9 -15 -13
-19 -10 -3 3 1 10 9 15 21 14 24 12 10 -5z m-28 -34 c-5 -3 -8 -25 -7 -48 3
-53 -10 -48 -19 7 -7 47 -2 62 20 53 9 -3 11 -9 6 -12z m753 -11 c3 -5 1 -10
-4 -10 -6 0 -11 5 -11 10 0 6 2 10 4 10 3 0 8 -4 11 -10z m-33 -25 c16 -14 26
-25 23 -25 -4 0 -20 11 -37 25 -16 14 -26 25 -23 25 4 0 20 -11 37 -25z m62 3
c-5 -8 -2 -9 9 -5 9 3 19 2 22 -2 3 -5 -2 -11 -9 -14 -16 -6 -40 16 -29 26 10
11 15 8 7 -5z m-709 -5 c-11 -3 -25 -9 -32 -15 -7 -6 -14 -5 -19 3 -4 7 -3 9
4 5 6 -3 13 -2 17 4 3 5 16 9 28 9 20 -1 21 -2 2 -6z m625 -14 c0 -5 -7 -9
-15 -9 -15 0 -20 12 -9 23 8 8 24 -1 24 -14z m-765 1 c4 -6 -6 -10 -22 -10
l-28 -1 27 -14 c16 -9 25 -21 23 -32 -14 -68 -16 -72 -31 -66 -8 3 -13 8 -10
11 3 2 -3 16 -14 30 -11 13 -17 29 -13 36 4 6 -1 5 -10 -3 -28 -23 -19 6 10
34 29 26 57 32 68 15z m142 -15 c0 -8 -4 -12 -9 -9 -4 3 -8 9 -8 15 0 5 4 9 8
9 5 0 9 -7 9 -15z m104 -2 c13 -16 12 -17 -3 -4 -10 7 -18 15 -18 17 0 8 8 3
21 -13z m-21 -14 c0 -5 -4 -9 -8 -9 -5 0 -9 7 -9 15 0 8 4 12 9 9 4 -3 8 -9 8
-15z m-30 -5 c0 -8 -19 -13 -24 -6 -3 5 1 9 9 9 8 0 15 -2 15 -3z m-190 -94
l-11 -25 6 25 c2 14 5 34 6 45 2 19 2 19 6 0 2 -12 -1 -32 -7 -45z m833 33
c-7 -2 -19 -2 -25 0 -7 3 -2 5 12 5 14 0 19 -2 13 -5z m-258 -23 c18 -20 18
-20 51 1 19 11 39 19 46 17 6 -2 -5 -15 -26 -27 l-37 -23 33 -29 c29 -25 31
-28 12 -29 -12 0 -27 7 -34 15 -17 20 -26 19 -62 -6 -41 -29 -46 -17 -6 16
l32 27 -27 24 c-15 13 -27 26 -27 29 0 12 28 3 45 -15z m42 14 c-3 -3 -12 -4
-19 -1 -8 3 -5 6 6 6 11 1 17 -2 13 -5z m124 -11 c16 -10 29 -21 29 -25 0 -9
-64 -58 -76 -58 -5 1 -22 11 -37 24 l-28 23 38 26 c46 31 39 30 74 10z m-365
-14 l23 -21 29 21 c47 33 50 25 6 -14 -21 -19 -34 -35 -29 -35 6 0 24 -11 40
-25 28 -23 29 -24 6 -20 -13 2 -31 11 -41 20 -15 13 -20 12 -50 -10 -18 -13
-37 -22 -42 -19 -5 4 7 17 26 30 41 28 44 38 16 61 -20 17 -26 33 -13 33 4 0
17 -10 29 -21z m154 -3 l29 -23 -35 -34 -34 -33 -27 27 -27 27 29 30 c16 16
31 30 33 30 2 0 17 -11 32 -24z m-351 -10 c11 -10 25 -15 31 -11 9 6 9 10 -1
17 -10 7 -8 8 8 3 12 -3 24 -1 28 5 3 5 12 10 18 10 7 -1 -3 -14 -22 -30 l-35
-30 22 -23 c28 -30 16 -44 -14 -16 l-23 21 -36 -22 c-48 -30 -55 -20 -9 15
l36 27 -27 28 c-31 32 -10 37 24 6z m155 -2 l30 -26 -25 -19 c-47 -37 -53 -38
-84 -13 l-30 25 35 29 c19 16 37 29 40 29 3 0 18 -11 34 -25z m-196 -7 l21
-23 -33 -26 -33 -27 -12 25 c-6 14 -15 23 -20 20 -5 -3 -22 1 -37 9 -24 12
-26 15 -8 15 11 0 25 -5 30 -10 7 -7 18 -2 34 15 29 31 31 31 58 2z m679 -43
c-3 -3 -12 -4 -19 -1 -8 3 -5 6 6 6 11 1 17 -2 13 -5z m-754 -18 c4 -10 1 -13
-8 -9 -8 3 -12 9 -9 14 7 12 11 11 17 -5z m-42 -29 c-10 -9 -11 -8 -5 6 3 10
9 15 12 12 3 -3 0 -11 -7 -18z m174 13 c3 -5 2 -10 -4 -10 -5 0 -13 5 -16 10
-3 6 -2 10 4 10 5 0 13 -4 16 -10z m517 -17 c12 -11 18 -11 23 -3 4 7 1 16 -6
21 -8 5 -9 9 -3 9 6 0 19 -9 29 -20 13 -15 22 -17 29 -10 8 8 6 14 -4 20 -9 6
-10 10 -3 10 6 0 15 -5 18 -10 5 -8 11 -7 21 1 11 9 17 9 28 0 10 -8 16 -9 21
-1 3 5 14 9 23 9 15 -1 15 -2 0 -6 -10 -2 -18 -8 -18 -12 0 -19 15 -19 44 1
17 12 25 15 19 8 -10 -11 -10 -17 0 -29 11 -14 10 -14 -5 -2 -14 10 -21 11
-32 2 -8 -7 -17 -8 -20 -3 -2 4 -24 7 -48 7 -31 -1 -42 -6 -40 -16 2 -9 -3 -7
-17 5 -16 14 -24 16 -34 8 -10 -9 -16 -9 -25 0 -8 8 -16 8 -29 -3 -16 -13 -17
-12 -5 3 8 10 9 19 3 22 -5 4 -14 -1 -19 -9 -8 -15 -10 -15 -22 0 -11 13 -10
15 3 10 8 -4 18 -1 22 4 7 12 19 8 47 -16z m-106 -2 l24 -19 -24 2 c-14 0 -22
6 -19 14 6 15 -9 16 -24 1 -8 -8 -16 -8 -30 0 -16 11 -16 11 4 6 12 -3 24 -1
28 5 9 14 13 13 41 -9z m-358 -37 c2 -1 -7 -1 -20 -1 -15 1 -24 8 -24 19 0 16
1 16 21 0 11 -9 21 -18 23 -18z m29 16 c14 -11 22 -20 18 -20 -4 0 -18 9 -32
20 -14 11 -22 20 -18 20 4 0 18 -9 32 -20z m38 10 c3 -6 -1 -7 -9 -4 -18 7
-21 14 -7 14 6 0 13 -4 16 -10z m66 -17 c13 -16 12 -17 -3 -4 -17 13 -22 21
-14 21 2 0 10 -8 17 -17z m355 -33 c0 -13 -7 -20 -18 -20 -16 0 -17 3 -8 20 6
11 14 20 18 20 4 0 8 -9 8 -20z m49 -10 c-5 -8 -11 -8 -17 -2 -6 6 -7 16 -3
22 5 8 11 8 17 2 6 -6 7 -16 3 -22z m61 8 c0 -13 -8 -18 -26 -18 -20 0 -22 2
-10 10 8 5 11 10 7 10 -14 0 1 17 15 17 8 0 14 -9 14 -19z m-216 -3 c0 -8 -6
-15 -13 -15 -8 0 -14 7 -14 15 0 8 6 15 14 15 7 0 13 -7 13 -15z m55 6 c7 -12
-12 -24 -25 -16 -11 7 -4 25 10 25 5 0 11 -4 15 -9z m213 -3 c-6 -18 -28 -21
-28 -4 0 9 7 16 16 16 9 0 14 -5 12 -12z m42 -3 c0 -8 -4 -15 -8 -15 -5 0 -9
7 -9 15 0 8 4 15 9 15 4 0 8 -7 8 -15z m-410 -10 c7 -9 8 -15 2 -15 -5 0 -12
7 -16 15 -3 8 -4 15 -2 15 2 0 9 -7 16 -15z m50 0 c-7 -8 -16 -12 -21 -9 -13
8 -1 24 18 24 13 0 13 -3 3 -15z m-286 -16 c-3 -5 -10 -7 -15 -3 -5 3 -7 10
-3 15 3 5 10 7 15 3 5 -3 7 -10 3 -15z m50 6 c3 -9 0 -15 -8 -15 -7 0 -13 7
-13 15 0 8 4 15 8 15 4 0 9 -7 13 -15z m51 5 c3 -5 -1 -10 -9 -10 -9 0 -16 5
-16 10 0 6 4 10 9 10 6 0 13 -4 16 -10z m45 0 c0 -5 -4 -10 -10 -10 -5 0 -10
5 -10 10 0 6 5 10 10 10 6 0 10 -4 10 -10z m55 0 c-3 -5 -13 -10 -21 -10 -8 0
-12 5 -9 10 3 6 13 10 21 10 8 0 12 -4 9 -10z m-340 -10 c3 -5 1 -10 -4 -10
-6 0 -11 5 -11 10 0 6 2 10 4 10 3 0 8 -4 11 -10z m50 0 c-3 -5 -10 -10 -16
-10 -5 0 -9 5 -9 10 0 6 7 10 16 10 8 0 12 -4 9 -10z m45 0 c0 -5 -4 -10 -10
-10 -5 0 -10 5 -10 10 0 6 5 10 10 10 6 0 10 -4 10 -10z m-885 -84 c9 -3 15
-12 12 -19 -3 -7 1 -21 9 -32 23 -32 17 -45 -18 -41 -20 2 -40 14 -55 32 -25
32 -31 74 -9 74 8 0 17 8 21 18 6 15 8 15 15 -4 5 -12 16 -24 25 -28z m1537
-3 c25 -4 26 -6 13 -19 -8 -9 -19 -13 -24 -9 -5 3 -13 0 -16 -5 -5 -8 -13 -6
-26 6 -18 16 -20 16 -39 -1 -16 -14 -23 -16 -32 -7 -8 8 -15 8 -24 1 -9 -7
-19 -6 -33 3 -17 10 -25 10 -42 0 -15 -10 -24 -11 -32 -3 -7 7 -14 7 -24 0 -9
-9 -17 -8 -28 1 -13 10 -19 10 -33 -3 -14 -13 -21 -14 -30 -5 -9 9 -15 9 -23
1 -9 -9 -16 -9 -29 0 -23 14 -50 -6 -50 -37 0 -32 11 -43 50 -51 66 -14 67
-18 15 -74 -54 -58 -74 -65 -69 -23 2 15 1 21 -2 14 -3 -7 -25 -22 -47 -35
-34 -17 -60 -22 -132 -22 -72 -1 -103 -7 -159 -28 -83 -33 -100 -34 -91 -7 4
13 2 20 -7 21 -7 0 -21 2 -31 4 -10 2 -21 -3 -24 -11 -3 -8 -9 -14 -14 -14
-15 0 -10 32 9 53 16 19 16 20 -6 8 -21 -11 -24 -9 -37 22 -7 18 -17 45 -20
59 -7 26 -6 27 42 25 33 0 70 8 118 29 67 28 76 29 228 29 129 0 159 3 167 15
13 21 -5 36 -25 20 -13 -11 -18 -10 -29 6 -11 14 -17 16 -28 7 -7 -7 -30 -9
-53 -6 -51 6 -63 6 -103 -1 -19 -3 -30 -1 -27 4 3 6 0 7 -8 4 -8 -3 -18 -1
-22 5 -7 12 14 13 255 11 107 -1 157 -5 162 -13 5 -8 8 -6 8 5 0 14 12 18 73
20 132 6 252 6 279 1z m-587 -312 c-6 -4 -65 -34 -133 -65 -68 -31 -135 -65
-149 -76 -14 -11 -29 -17 -33 -15 -5 3 -11 1 -15 -5 -11 -18 -22 -11 -28 18
-3 15 -8 34 -12 43 -4 12 10 22 60 43 82 36 337 82 310 57z"/>
<path d="M986 865 c-3 -9 0 -15 9 -15 16 0 20 16 6 24 -5 3 -11 -1 -15 -9z"/>
<path d="M1735 780 c-3 -5 -1 -10 4 -10 6 0 11 5 11 10 0 6 -2 10 -4 10 -3 0
-8 -4 -11 -10z"/>
<path d="M1526 771 c-4 -5 -2 -12 3 -15 5 -4 12 -2 15 3 4 5 2 12 -3 15 -5 4
-12 2 -15 -3z"/>
<path d="M1325 761 c-6 -11 9 -23 19 -14 9 9 7 23 -3 23 -6 0 -12 -4 -16 -9z"/>
<path d="M1130 750 c0 -5 5 -10 10 -10 6 0 10 5 10 10 0 6 -4 10 -10 10 -5 0
-10 -4 -10 -10z"/>
<path d="M1860 690 c0 -5 7 -10 16 -10 8 0 12 5 9 10 -3 6 -10 10 -16 10 -5 0
-9 -4 -9 -10z"/>
<path d="M1095 275 c-24 -11 -26 -14 -9 -15 11 0 29 7 40 15 24 18 9 18 -31 0z"/>
<path d="M12 1792 c-10 -7 -12 -104 -10 -453 l3 -444 45 -6 c94 -13 175 -18
155 -9 -11 5 -34 9 -51 9 -37 1 -48 10 -33 27 6 7 24 11 42 9 81 -10 217 -14
217 -6 0 4 -51 11 -113 14 -62 3 -121 9 -130 13 -29 11 -19 26 12 19 16 -3 32
-2 35 3 2 4 0 40 -6 79 -8 57 -7 90 6 166 9 52 19 129 23 171 l6 76 -32 0
c-27 0 -35 -5 -44 -30 -16 -42 -27 -37 -28 13 0 23 -3 37 -5 31 -4 -9 -11 -9
-29 0 -22 10 -25 17 -25 71 0 88 7 108 36 101 21 -6 24 -3 24 20 0 28 -23 57
-36 46 -5 -4 -5 -3 -1 3 5 6 14 10 20 10 7 0 12 11 12 23 0 19 -9 27 -40 38
-22 7 -40 14 -40 14 0 0 -6 -4 -13 -8z"/>
<path d="M80 1583 c0 -16 4 -33 9 -38 5 -6 11 -21 14 -35 3 -14 4 2 3 34 0 38
-6 61 -13 64 -9 2 -13 -7 -13 -25z"/>
<path d="M682 810 c26 -5 52 -11 57 -15 6 -3 11 -2 11 3 0 13 -36 22 -80 21
-32 -1 -31 -2 12 -9z"/>
</g>
</svg>
